<?xml version="1.0" ?><svg enable-background="new 0 0 216 214.6836" id="utorrent" version="1.1" viewBox="0 0 216 214.6836" xml:space="preserve" xmlns="http://www.w3.org/2000/svg" xmlns:xlink="http://www.w3.org/1999/xlink"><g><path d="M205.6484,139.7734c-7.0039,0.0742-12.5742-0.4844-16.5508-1.6211   c-12.0469-3.4414-15.7656-8.3711-15.7695-8.3711c-0.8438-1.2656-2.3281-1.957-3.8516-1.7422   c-1.5117,0.1992-2.7812,1.2422-3.2695,2.6875c-0.0547,0.1641-5.7305,16.5625-19.9961,23.6953   c-14.8164,7.4102-41.6641,5.6016-41.9258,5.5898c-1.4531-0.1367-2.7539,0.5391-3.5547,1.6875   c-0.8086,1.1484-0.957,2.6328-0.3906,3.9141l20.5938,46.6836c0.6484,1.4688,2.0938,2.3867,3.6602,2.3867   c0.207,0,0.4219-0.0156,0.6328-0.0508c38.5039-6.1758,70.7734-32.8008,84.2109-69.4844c0.4531-1.2305,0.2734-2.6055-0.4844-3.6797   C208.1953,140.3984,206.8789,139.6914,205.6484,139.7734z" fill="#535353"/><path d="M126.9883,206.1992l-16.7539-37.9766c9.543,0.0547,27.4766-0.6094,39.5547-6.6445   c11.6875-5.8438,18.4258-16.3672,21.6445-22.8164c3.125,2.2695,8.0391,4.9609,15.4688,7.0859   c3.4609,0.9883,7.7891,1.5977,12.9219,1.8281C186.7305,177.9648,159.4375,199.9609,126.9883,206.1992z" fill="#D8D8D8"/><path d="M108,0C48.4492,0,0,48.4492,0,108c0,47.207,31.5273,89.7227,76.668,103.3828   c0.3828,0.1172,0.7734,0.1719,1.1602,0.1719c1.1016,0,2.1758-0.457,2.9453-1.293c1.0391-1.1289,1.3398-2.7539,0.7734-4.1836   C38.9727,98.7539,31.2617,73.7852,30.0508,68.0234c5.7422-3.0312,24.957-7.2109,30.0664-6.3711   c1.5039,2.1406,4.6055,9.7305,7.3633,16.4805c10.4609,25.5977,26.2656,64.2891,48.2344,65.8555   c15.5898,1.1133,29.625-4.7891,37.6484-15.7773c4.875-6.6758,6.5391-14.2227,4.3516-19.6953   c-3.3281-8.3203-18.6797-43.3438-24.1445-55.7852l24.0625-6.0156c5.25,12.4844,24.2969,57.0469,33.2969,67.8477   c3.9219,4.7031,10.6719,7.5859,20.0664,8.5625c2.2344,0.1836,4.1562-1.3633,4.3906-3.5547C215.793,115.7617,216,111.8672,216,108   C216,48.4492,167.5508,0,108,0z" fill="#535353"/><path d="M207.7891,114.5742c-5.0469-0.9844-8.7109-2.7305-10.7148-5.1367   c-7.8828-9.457-26.7656-52.9922-33.3789-68.9688c-0.7578-1.8281-2.7461-2.8398-4.6641-2.3477l-32,8   c-1.1445,0.2852-2.1055,1.0586-2.625,2.1172c-0.5156,1.0586-0.543,2.293-0.0664,3.3711c0.2188,0.5,22.0156,50.0547,25.9453,59.875   c0.9492,2.3711,0.2695,7.0039-3.3828,12.0078c-6.3906,8.75-17.832,13.4219-30.6172,12.5195   c-17.0117-1.2148-32.875-40.0469-41.3984-60.9062c-6.2539-15.3008-8.207-19.7617-11.6211-20.8984   c-7.1992-2.4062-34.9297,3.7969-40.0938,8.9648c-2.6055,2.6055-4.8672,4.8633,47.707,137.707C33.4648,185.8633,8,148.8281,8,108   C8,52.8594,52.8594,8,108,8s100,44.8594,100,100C208,110.1914,207.9297,112.3906,207.7891,114.5742z" fill="#D8D8D8"/></g></svg>